<svg width="40" height="40" viewBox="0 0 40 40" fill="none" xmlns="http://www.w3.org/2000/svg">
<path d="M5.72621 40H18.4765V25.7812H13.8956V21.0938H18.4765V15.2344C18.4765 12.0035 21.0453 9.375 24.2027 9.375H29.929V14.0625H25.348C24.085 14.0625 23.0576 15.1138 23.0576 16.4062V21.0938H29.7223L28.9588 25.7812H23.0576V40H33.3647C36.5221 40 39.0909 37.3715 39.0909 34.1406V5.85938C39.0909 2.62848 36.5221 0 33.3647 0H5.72621C2.56874 0 0 2.62848 0 5.85938V34.1406C0 37.3715 2.56874 40 5.72621 40ZM2.29048 5.85938C2.29048 3.9209 3.83179 2.34375 5.72621 2.34375H33.3647C35.2591 2.34375 36.8004 3.9209 36.8004 5.85938V34.1406C36.8004 36.0791 35.2591 37.6562 33.3647 37.6562H25.348V28.125H30.8991L32.4261 18.75H25.348V16.4062H32.2195V7.03125H24.2027C19.7822 7.03125 16.1861 10.7111 16.1861 15.2344V18.75H11.6051V28.125H16.1861V37.6562H5.72621C3.83179 37.6562 2.29048 36.0791 2.29048 34.1406V5.85938Z" fill="black"/>
</svg>
