<svg width="124" height="113" viewBox="0 0 124 113" fill="none" xmlns="http://www.w3.org/2000/svg">
<path d="M115.223 44.5569H11.4893C10.937 44.5569 10.4893 45.0046 10.4893 45.5569V111C10.4893 111.552 10.937 112 11.4893 112H115.223C115.775 112 116.223 111.552 116.223 111V45.5569C116.223 45.0046 115.775 44.5569 115.223 44.5569Z" fill="#FFB800" stroke="black" stroke-width="2"/>
<path d="M46.5787 2.59337L11.7332 48.5284C11.052 49.4263 11.227 50.735 12.1198 51.4209L28.7893 64.2278L88.3527 102.643C89.1792 103.176 90.253 103.009 90.8812 102.249L110.123 78.9809L121.768 63.895C122.447 63.0157 122.298 61.7267 121.437 61.0247L49.3377 2.26348C48.4815 1.56566 47.2463 1.71335 46.5787 2.59337Z" fill="white" stroke="black" stroke-width="2"/>
<rect x="1.38183" y="-0.142686" width="39.8489" height="42.8417" transform="matrix(0.61702 -0.786947 0.764805 0.644262 44.61 64.4759)" fill="white" stroke="black" stroke-width="2"/>
<path d="M106.527 64.2278H2.2026C1.57723 64.2278 1.1053 64.7953 1.21938 65.4102L9.71156 111.182C9.79947 111.656 10.2129 112 10.6948 112H115.02C115.645 112 116.117 111.432 116.003 110.818L107.511 65.0454C107.423 64.5715 107.009 64.2278 106.527 64.2278Z" fill="#FFB800" stroke="black" stroke-width="2"/>
<rect x="1.38183" y="-0.142686" width="19.418" height="19.2615" transform="matrix(0.61702 -0.786947 0.764805 0.644262 37.3962 30.9183)" fill="white" stroke="black" stroke-width="2"/>
<rect x="1.38183" y="-0.142686" width="19.418" height="19.2615" transform="matrix(0.61702 -0.786947 0.764805 0.644262 21.9713 49.803)" fill="white" stroke="black" stroke-width="2"/>
</svg>
